<svg width="18" height="18" viewBox="0 0 18 18" fill="none" xmlns="http://www.w3.org/2000/svg">
<path opacity="0.4" d="M17.28 1.62H13.5V0.18C13.5 0.081 13.419 0 13.32 0H12.06C11.961 0 11.88 0.081 11.88 0.18V1.62H6.12V0.18C6.12 0.081 6.039 0 5.94 0H4.68C4.581 0 4.5 0.081 4.5 0.18V1.62H0.72C0.32175 1.62 0 1.94175 0 2.34V17.28C0 17.6783 0.32175 18 0.72 18H17.28C17.6783 18 18 17.6783 18 17.28V2.34C18 1.94175 17.6783 1.62 17.28 1.62ZM16.38 16.38H1.62V7.83H16.38V16.38ZM1.62 6.3V3.24H4.5V4.32C4.5 4.419 4.581 4.5 4.68 4.5H5.94C6.039 4.5 6.12 4.419 6.12 4.32V3.24H11.88V4.32C11.88 4.419 11.961 4.5 12.06 4.5H13.32C13.419 4.5 13.5 4.419 13.5 4.32V3.24H16.38V6.3H1.62Z" fill="black"/>
</svg>
